<mxfile host="65bd71144e">
    <diagram name="Page-1" id="t4Jf7TgrqETy8eaARP5O">
        <mxGraphModel dx="2586" dy="2493" grid="1" gridSize="10" guides="1" tooltips="1" connect="1" arrows="1" fold="1" page="0" pageScale="1" pageWidth="1100" pageHeight="850" math="0" shadow="0">
            <root>
                <mxCell id="0"/>
                <mxCell id="1" parent="0"/>
                <mxCell id="722OQepmCOtJsaWG-H6P-57" value="" style="edgeStyle=orthogonalEdgeStyle;hachureGap=4;orthogonalLoop=1;jettySize=auto;html=1;fontFamily=Architects Daughter;fontSource=https%3A%2F%2Ffonts.googleapis.com%2Fcss%3Ffamily%3DArchitects%2BDaughter;fontSize=16;sketch=1;curveFitting=1;jiggle=2;" parent="1" source="722OQepmCOtJsaWG-H6P-55" target="722OQepmCOtJsaWG-H6P-56" edge="1">
                    <mxGeometry relative="1" as="geometry"/>
                </mxCell>
                <mxCell id="722OQepmCOtJsaWG-H6P-58" value="findCode()" style="edgeLabel;html=1;align=center;verticalAlign=middle;resizable=0;points=[];fontSize=20;fontFamily=Architects Daughter;sketch=1;curveFitting=1;jiggle=2;" parent="722OQepmCOtJsaWG-H6P-57" vertex="1" connectable="0">
                    <mxGeometry x="-0.0671" y="-2" relative="1" as="geometry">
                        <mxPoint x="47" as="offset"/>
                    </mxGeometry>
                </mxCell>
                <mxCell id="722OQepmCOtJsaWG-H6P-55" value="12amongus34" style="whiteSpace=wrap;html=1;hachureGap=4;fontFamily=Architects Daughter;fontSource=https%3A%2F%2Ffonts.googleapis.com%2Fcss%3Ffamily%3DArchitects%2BDaughter;fontSize=20;sketch=1;curveFitting=1;jiggle=2;" parent="1" vertex="1">
                    <mxGeometry x="-1015" y="-1290" width="200" height="60" as="geometry"/>
                </mxCell>
                <mxCell id="722OQepmCOtJsaWG-H6P-56" value="&lt;b&gt;5&lt;/b&gt;" style="shape=process;whiteSpace=wrap;html=1;backgroundOutline=1;fontSize=20;fontFamily=Architects Daughter;hachureGap=4;fontSource=https%3A%2F%2Ffonts.googleapis.com%2Fcss%3Ffamily%3DArchitects%2BDaughter;sketch=1;curveFitting=1;jiggle=2;" parent="1" vertex="1">
                    <mxGeometry x="-1130" y="-1100" width="430" height="60" as="geometry"/>
                </mxCell>
                <mxCell id="722OQepmCOtJsaWG-H6P-59" value="&lt;p style=&quot;line-height: 120%;&quot;&gt;for each line in the string&lt;/p&gt;" style="rounded=0;whiteSpace=wrap;html=1;hachureGap=4;fontFamily=Architects Daughter;fontSource=https%3A%2F%2Ffonts.googleapis.com%2Fcss%3Ffamily%3DArchitects%2BDaughter;fontSize=20;fillColor=#fad7ac;strokeColor=default;align=left;perimeterSpacing=0;glass=0;gradientColor=none;fillStyle=auto;horizontal=1;verticalAlign=top;fontColor=#FFFFFF;sketch=1;curveFitting=1;jiggle=2;" parent="1" vertex="1">
                    <mxGeometry x="-630" y="-1270" width="430" height="380" as="geometry"/>
                </mxCell>
                <mxCell id="722OQepmCOtJsaWG-H6P-60" value="" style="endArrow=classic;html=1;hachureGap=4;fontFamily=Architects Daughter;fontSource=https%3A%2F%2Ffonts.googleapis.com%2Fcss%3Ffamily%3DArchitects%2BDaughter;fontSize=16;entryX=0;entryY=0.25;entryDx=0;entryDy=0;sketch=1;curveFitting=1;jiggle=2;" parent="1" target="722OQepmCOtJsaWG-H6P-59" edge="1">
                    <mxGeometry width="50" height="50" relative="1" as="geometry">
                        <mxPoint x="-820" y="-1170" as="sourcePoint"/>
                        <mxPoint x="-340" y="-1240" as="targetPoint"/>
                    </mxGeometry>
                </mxCell>
                <mxCell id="722OQepmCOtJsaWG-H6P-62" value="for each character in the line" style="whiteSpace=wrap;html=1;hachureGap=4;fontFamily=Architects Daughter;fontSource=https%3A%2F%2Ffonts.googleapis.com%2Fcss%3Ffamily%3DArchitects%2BDaughter;fontSize=20;fillColor=#b1ddf0;strokeColor=default;align=left;verticalAlign=top;sketch=1;curveFitting=1;jiggle=2;" parent="1" vertex="1">
                    <mxGeometry x="-610" y="-1210" width="390" height="110" as="geometry"/>
                </mxCell>
                <mxCell id="722OQepmCOtJsaWG-H6P-63" value="check if the char is a number:&lt;br&gt;if so, save the number as string" style="text;html=1;strokeColor=default;fillColor=#fad9d5;align=center;verticalAlign=middle;whiteSpace=wrap;rounded=0;fontSize=20;fontFamily=Architects Daughter;labelBackgroundColor=none;sketch=1;curveFitting=1;jiggle=2;" parent="1" vertex="1">
                    <mxGeometry x="-590" y="-1170" width="350" height="60" as="geometry"/>
                </mxCell>
                <mxCell id="722OQepmCOtJsaWG-H6P-64" value="for each (reverse order)" style="whiteSpace=wrap;html=1;hachureGap=4;fontFamily=Architects Daughter;fontSource=https%3A%2F%2Ffonts.googleapis.com%2Fcss%3Ffamily%3DArchitects%2BDaughter;fontSize=20;fillColor=#b1ddf0;strokeColor=default;align=left;verticalAlign=top;sketch=1;curveFitting=1;jiggle=2;" parent="1" vertex="1">
                    <mxGeometry x="-610" y="-1080" width="390" height="110" as="geometry"/>
                </mxCell>
                <mxCell id="722OQepmCOtJsaWG-H6P-65" value="check if the char is a number:&lt;br&gt;if so, append to the previous string" style="text;html=1;strokeColor=default;fillColor=#fad9d5;align=center;verticalAlign=middle;whiteSpace=wrap;rounded=0;fontSize=20;fontFamily=Architects Daughter;labelBackgroundColor=none;sketch=1;curveFitting=1;jiggle=2;" parent="1" vertex="1">
                    <mxGeometry x="-590" y="-1040" width="350" height="60" as="geometry"/>
                </mxCell>
                <mxCell id="722OQepmCOtJsaWG-H6P-66" value="previous string -&amp;gt; integer&lt;br&gt;&amp;nbsp;returnValue += sumInteger" style="text;html=1;align=center;verticalAlign=middle;resizable=0;points=[];autosize=1;strokeColor=none;fillColor=none;fontSize=20;fontFamily=Architects Daughter;sketch=1;curveFitting=1;jiggle=2;" parent="1" vertex="1">
                    <mxGeometry x="-630" y="-970" width="280" height="60" as="geometry"/>
                </mxCell>
                <mxCell id="722OQepmCOtJsaWG-H6P-67" value="return (returnValue)" style="text;html=1;align=center;verticalAlign=middle;resizable=0;points=[];autosize=1;strokeColor=#10739e;fillColor=#b1ddf0;fontSize=20;fontFamily=Architects Daughter;sketch=1;curveFitting=1;jiggle=2;" parent="1" vertex="1">
                    <mxGeometry x="-630" y="-880" width="210" height="40" as="geometry"/>
                </mxCell>
            </root>
        </mxGraphModel>
    </diagram>
</mxfile>